<?xml version="1.0" encoding="UTF-8"?>
<svg version="1.1" xmlns="http://www.w3.org/2000/svg" width="512" height="512">
<path d="M0 0 C0.92353271 0.00215515 1.84706543 0.0043103 2.79858398 0.00653076 C16.84929699 0.05905849 30.56128832 0.5299175 44.375 3.3125 C45.40399414 3.51649414 46.43298828 3.72048828 47.49316406 3.93066406 C97.3120451 14.07157407 140.68742655 37.29968026 177.375 72.3125 C178.24769531 73.14394531 179.12039063 73.97539063 180.01953125 74.83203125 C185.96448954 80.63087689 191.24552904 86.78809546 196.375 93.3125 C197.15488281 94.27542969 197.93476563 95.23835938 198.73828125 96.23046875 C216.05432647 118.02051609 229.48889688 142.9641119 238.375 169.3125 C238.78806396 170.53501465 238.78806396 170.53501465 239.20947266 171.78222656 C242.44056493 181.53198421 244.97533918 191.39586783 247.125 201.4375 C247.32375732 202.35378174 247.52251465 203.27006348 247.72729492 204.21411133 C250.88351524 219.6948782 251.75820648 235.17449292 251.6875 250.9375 C251.68534485 251.80957092 251.6831897 252.68164185 251.68096924 253.58013916 C251.62534038 267.66903096 251.01936015 281.43919023 248.375 295.3125 C248.18164062 296.3334375 247.98828125 297.354375 247.7890625 298.40625 C237.84967092 348.96216766 213.61255115 392.20878571 178.375 429.3125 C177.19744141 430.55386719 177.19744141 430.55386719 175.99609375 431.8203125 C170.49366301 437.47039344 164.56267124 442.43185022 158.375 447.3125 C157.41078125 448.09367187 156.4465625 448.87484375 155.453125 449.6796875 C125.09302039 473.79824776 88.57385271 490.41186586 50.625 498.125 C49.19087769 498.41733521 49.19087769 498.41733521 47.7277832 498.71557617 C32.12454826 501.69644172 16.60949758 502.69613929 0.75 502.625 C-0.12207092 502.62284485 -0.99414185 502.6206897 -1.89263916 502.61846924 C-15.98153096 502.56284038 -29.75169023 501.95686015 -43.625 499.3125 C-44.6459375 499.11914062 -45.666875 498.92578125 -46.71875 498.7265625 C-85.69568937 491.06362054 -122.46121682 475.08022288 -153.625 450.3125 C-154.52089844 449.60867188 -155.41679687 448.90484375 -156.33984375 448.1796875 C-163.7602791 442.23908072 -170.73658694 435.85445442 -177.625 429.3125 C-178.86636719 428.13494141 -178.86636719 428.13494141 -180.1328125 426.93359375 C-185.78289344 421.43116301 -190.74435022 415.50017124 -195.625 409.3125 C-196.40617187 408.34828125 -197.18734375 407.3840625 -197.9921875 406.390625 C-232.95463282 362.38039032 -251.17339922 307.65238139 -250.9375 251.6875 C-250.93534485 250.76396729 -250.9331897 249.84043457 -250.93096924 248.88891602 C-250.87844151 234.83820301 -250.4075825 221.12621168 -247.625 207.3125 C-247.42100586 206.28350586 -247.21701172 205.25451172 -247.00683594 204.19433594 C-242.45138099 181.81491755 -235.6181648 160.84476435 -225.625 140.3125 C-225.26680176 139.57547852 -224.90860352 138.83845703 -224.53955078 138.07910156 C-216.44982563 121.66269821 -206.18401676 106.48232032 -194.625 92.3125 C-194.17189453 91.75643066 -193.71878906 91.20036133 -193.25195312 90.62744141 C-182.55774546 77.61175451 -170.95572134 65.6471275 -157.625 55.3125 C-156.66722656 54.53777344 -155.70945312 53.76304688 -154.72265625 52.96484375 C-132.94191922 35.63363938 -107.97567348 22.19340467 -81.625 13.3125 C-80.2328125 12.84287842 -80.2328125 12.84287842 -78.8125 12.36376953 C-52.98612831 3.7973796 -27.16044089 -0.11448477 0 0 Z M-143.515625 116.26171875 C-145.27897468 118.2347872 -146.95465299 120.25986738 -148.625 122.3125 C-149.53774688 123.40105301 -150.45050868 124.48959352 -151.36328125 125.578125 C-158.63515527 134.35225834 -164.89720399 143.46684285 -170.625 153.3125 C-170.9751416 153.90434082 -171.3252832 154.49618164 -171.68603516 155.10595703 C-197.45929239 199.07210172 -202.5457766 252.69042399 -190.328125 301.62890625 C-182.36078385 332.03759162 -167.06682629 360.13834029 -145.640625 383.14453125 C-143.71590389 385.21472547 -141.88752513 387.34203109 -140.0625 389.5 C-136.54733878 393.50935622 -132.73316289 396.92163539 -128.625 400.3125 C-128.12000977 400.74046875 -127.61501953 401.1684375 -127.09472656 401.609375 C-94.12661976 429.50104467 -50.98165237 447.12676516 -7.625 448.3125 C-6.42746094 448.35246094 -5.22992188 448.39242188 -3.99609375 448.43359375 C47.69970653 449.32040364 96.61105071 430.50163457 134.375 395.3125 C136.60195039 393.37682292 138.83302061 391.44650565 141.07421875 389.52734375 C153.04343214 378.00519775 163.19296061 363.71008003 171.375 349.3125 C172.01695312 348.21421875 172.65890625 347.1159375 173.3203125 345.984375 C198.72263071 301.38364627 203.33674695 247.48612747 190.375 198.3125 C182.26897836 168.91049854 167.13624556 141.73914904 146.34765625 119.44140625 C144.46680421 117.41157583 142.69817807 115.32152667 140.9375 113.1875 C140.091875 112.23875 139.24625 111.29 138.375 110.3125 C137.715 110.3125 137.055 110.3125 136.375 110.3125 C136.375 109.6525 136.375 108.9925 136.375 108.3125 C134.85420071 106.7128922 134.85420071 106.7128922 132.859375 105.07421875 C132.12525391 104.4507959 131.39113281 103.82737305 130.63476562 103.18505859 C59.78695724 44.47690277 -41.96248547 36.77059696 -143.515625 116.26171875 Z " fill="#CBB7EF" transform="translate(255.625,4.6875)"/>
<path d="M0 0 C12.0516934 12.89250922 11.4225382 28.6175692 11.38378906 45.18359375 C11.38650299 47.13778819 11.39006617 49.0919816 11.39440918 51.0461731 C11.40348765 56.32710936 11.40000772 61.60796703 11.39365101 66.88890457 C11.38856743 72.43041436 11.393289 77.97191767 11.39642334 83.51342773 C11.40005612 92.81723227 11.39528194 102.12100499 11.38574219 111.42480469 C11.37485898 122.16244907 11.37838504 132.90001748 11.389395 143.63766003 C11.39848747 152.87704968 11.39974357 162.11641653 11.39451766 171.35580921 C11.39140874 176.86521969 11.39095891 182.37459453 11.39759064 187.88400269 C11.40339202 193.06495575 11.39931629 198.2458114 11.38780212 203.426754 C11.38517043 205.32173374 11.38589497 207.21672176 11.39032745 209.11169815 C11.42470367 225.30850346 11.0271054 239.43071367 -0.5 252.0625 C-9.88517649 260.88492897 -20.78768177 263.31882319 -33.20703125 263.08984375 C-43.27332361 262.59964847 -51.03027353 257.89787287 -57.875 250.75 C-58.59623047 250.0075 -58.59623047 250.0075 -59.33203125 249.25 C-70.20983087 237.15625299 -69.16942101 221.54976986 -69.13378906 206.31640625 C-69.13650299 204.36221181 -69.14006617 202.4080184 -69.14440918 200.4538269 C-69.15348765 195.17289064 -69.15000772 189.89203297 -69.14365101 184.61109543 C-69.13856743 179.06958564 -69.143289 173.52808233 -69.14642334 167.98657227 C-69.15005612 158.68276773 -69.14528194 149.37899501 -69.13574219 140.07519531 C-69.12485898 129.33755093 -69.12838504 118.59998252 -69.139395 107.86233997 C-69.14848747 98.62295032 -69.14974357 89.38358347 -69.14451766 80.14419079 C-69.14140874 74.63478031 -69.14095891 69.12540547 -69.14759064 63.61599731 C-69.15339202 58.43504425 -69.14931629 53.2541886 -69.13780212 48.073246 C-69.13517043 46.17826626 -69.13589497 44.28327824 -69.14032745 42.38830185 C-69.1727308 27.12104137 -68.5855043 14.44295066 -59.625 1.5 C-52.47486184 -5.65013816 -42.46134123 -11.46819736 -32.19140625 -12.27734375 C-19.32034537 -12.1254088 -9.45064772 -8.7967314 0 0 Z " fill="#CDB9F1" transform="translate(284.875,130.25)"/>
<path d="M0 0 C0.66 0.33 1.32 0.66 2 1 C-8.56 11.56 -19.12 22.12 -30 33 C-30 29.48421611 -29.57937105 29.18270422 -27.25390625 26.7421875 C-26.66810791 26.12077881 -26.08230957 25.49937012 -25.47875977 24.85913086 C-24.84639404 24.20436768 -24.21402832 23.54960449 -23.5625 22.875 C-22.92304443 22.20283447 -22.28358887 21.53066895 -21.62475586 20.83813477 C-19.7587625 18.88325098 -17.88191087 16.93955218 -16 15 C-15.113125 14.08347656 -14.22625 13.16695312 -13.3125 12.22265625 C-9.05936279 7.90306377 -4.66495475 3.8709199 0 0 Z " fill="#3A3444" transform="translate(94,63)"/>
</svg>
