<?xml version="1.0" encoding="UTF-8"?>
<svg version="1.1" xmlns="http://www.w3.org/2000/svg" width="512" height="512">
<path d="M0 0 C0.79970215 0.19867676 1.5994043 0.39735352 2.42333984 0.60205078 C28.34461111 7.29157275 53.98407151 19.89984025 72.59375 39.55859375 C74.10283775 41.17172947 74.10283775 41.17172947 76.5 42.9375 C104.61452736 66.13198507 119.92219235 105.28989619 123.78329563 140.55891132 C124.10892521 144.22699929 124.13154201 147.86883704 124.11352539 151.54907227 C124.11367142 152.35017929 124.11381744 153.15128632 124.1139679 153.97666931 C124.11327855 156.58994379 124.10553262 159.20314443 124.09765625 161.81640625 C124.09578859 163.64200298 124.09436633 165.46760022 124.09336853 167.29319763 C124.08957078 172.07216808 124.07976422 176.8511076 124.06866455 181.63006592 C124.05839116 186.5170449 124.05385827 191.40402893 124.04882812 196.29101562 C124.03813922 205.86069059 124.02109614 215.43034271 124 225 C125.30702881 224.98332275 126.61405762 224.96664551 127.96069336 224.94946289 C129.69124053 224.93597506 131.4217909 224.92289428 133.15234375 224.91015625 C134.01194702 224.89811157 134.87155029 224.88606689 135.75720215 224.87365723 C146.39445064 224.81494431 153.00784066 228.00550173 160.73046875 235.36328125 C168.3112089 244.17050948 170.1554102 253.48279691 170.13371277 264.70930481 C170.13597833 265.57379437 170.13824388 266.43828392 170.14057809 267.32897013 C170.14689656 270.21908296 170.14609011 273.10914862 170.14526367 275.99926758 C170.14825651 278.07419393 170.15165932 280.14911973 170.15544128 282.2240448 C170.16427287 287.85634855 170.16661905 293.48863711 170.16725707 299.12094712 C170.16796806 302.64110042 170.1701033 306.16124986 170.17275429 309.68140221 C170.18200495 321.96574524 170.18608953 334.25007743 170.18530273 346.53442383 C170.18470203 357.97920378 170.19525323 369.42393659 170.2110464 380.86870462 C170.22412871 390.69988502 170.22948634 400.53105002 170.22884732 410.36223906 C170.22859254 416.23160471 170.23143306 422.10092845 170.24202538 427.97028542 C170.25171793 433.49177831 170.25177755 439.01318933 170.24450874 444.53468513 C170.24346434 446.55789561 170.24581719 448.58111121 170.2518692 450.6043129 C170.25961258 453.37288565 170.2549288 456.14117735 170.24723816 458.90974426 C170.25238172 459.70431701 170.25752529 460.49888976 170.26282471 461.31754047 C170.19588889 472.2731339 167.31195304 481.57842617 159.8125 489.75 C153.5632165 495.65591628 145.61138324 499.1200847 137.06777096 499.13422108 C135.82090918 499.13867892 134.57404741 499.14313676 133.28940195 499.14772969 C131.89808904 499.14764039 130.50677614 499.14745054 129.11546326 499.14717102 C127.6433215 499.15046963 126.17118065 499.15419519 124.69904095 499.1583125 C120.64336034 499.16834116 116.58769454 499.17205069 112.53200328 499.17470181 C108.16167437 499.17860236 103.79135719 499.18818095 99.42103577 499.19691467 C88.86078355 499.21668735 78.30053037 499.22674685 67.74026427 499.23564246 C62.76804056 499.24002452 57.79581791 499.24539159 52.82359505 499.25063133 C36.29557103 499.26764531 19.76754769 499.28213924 3.23951626 499.28938007 C-1.05069034 499.29128999 -5.34089694 499.29321032 -9.63110352 499.29516602 C-10.697424 499.29564976 -11.76374447 499.2961335 -12.8623777 499.2966319 C-30.13402318 499.30493123 -47.40559939 499.33026577 -64.67721463 499.36274669 C-82.40725385 499.39581799 -100.13725788 499.41382895 -117.86732811 499.41702431 C-127.82301403 499.41918947 -137.77859896 499.42793886 -147.73425484 499.45348549 C-156.21364054 499.47519352 -164.69290073 499.48324243 -173.17231108 499.47351871 C-177.49761305 499.46897415 -181.82265606 499.47086916 -186.14792252 499.49028015 C-190.11146286 499.50791386 -194.07455536 499.50691262 -198.03810047 499.49138286 C-199.46819817 499.48900707 -200.89832689 499.4933289 -202.32837719 499.50521151 C-214.00650769 499.59619838 -222.71424963 497.88887535 -231.3203125 489.71484375 C-239.69746353 481.162357 -242.1562278 472.12144725 -242.13371277 460.37298584 C-242.13597833 459.50526716 -242.13824388 458.63754847 -242.14057809 457.74353528 C-242.14690719 454.83649696 -242.14608942 451.92950539 -242.14526367 449.02246094 C-242.14825587 446.93782999 -242.15165854 444.85319961 -242.15544128 442.76856995 C-242.16428004 437.10521625 -242.16661937 431.44187765 -242.16725707 425.77851772 C-242.16820667 421.04953389 -242.17188563 416.32055357 -242.17542917 411.59157109 C-242.18357353 400.43230209 -242.18601345 389.27304116 -242.18530273 378.11376953 C-242.18470218 366.60709448 -242.19524971 355.10046635 -242.2110464 343.59380317 C-242.22412883 333.71168795 -242.22948632 323.82958804 -242.22884732 313.94746423 C-242.22859251 308.04678464 -242.23143444 302.14614673 -242.24202538 296.24547577 C-242.25171795 290.69362757 -242.25177753 285.14186079 -242.24450874 279.59000969 C-242.2434643 277.55551217 -242.24581747 275.52100955 -242.2518692 273.48652077 C-242.259612 270.7025683 -242.25492915 267.91889538 -242.24723816 265.13494873 C-242.25238172 264.33580292 -242.25752529 263.5366571 -242.26282471 262.71329474 C-242.19622242 251.75291191 -239.3289766 243.02360973 -231.9921875 234.73046875 C-223.78217591 226.80000952 -215.75159555 224.73305582 -204.62109375 224.90625 C-203.78993042 224.91301758 -202.95876709 224.91978516 -202.10241699 224.92675781 C-200.06820713 224.94430041 -198.03408161 224.97119884 -196 225 C-196.00666183 224.0193306 -196.01332367 223.03866119 -196.02018738 222.02827454 C-196.08156504 212.69010102 -196.12624026 203.35196953 -196.15543652 194.0136385 C-196.17095219 189.21514148 -196.19192529 184.41681 -196.22631836 179.6184082 C-196.51344027 138.44089813 -196.51344027 138.44089813 -193 122 C-192.78077881 120.93934326 -192.56155762 119.87868652 -192.33569336 118.78588867 C-191.76622511 116.29994503 -191.11405686 113.87762335 -190.375 111.4375 C-190.12339111 110.58728271 -189.87178223 109.73706543 -189.61254883 108.86108398 C-182.30751339 85.23994615 -169.20298739 62.89932517 -151 46 C-150.195625 45.195625 -149.39125 44.39125 -148.5625 43.5625 C-147.716875 42.716875 -146.87125 41.87125 -146 41 C-145.24589844 40.17628906 -145.24589844 40.17628906 -144.4765625 39.3359375 C-109.42873343 2.14544639 -49.00593938 -12.18851632 0 0 Z M-107 99 C-135.80710177 135.92916353 -127 178.68433339 -127 225 C-66.94 225 -6.88 225 55 225 C59.55331847 153.64412213 59.55331847 153.64412213 30.30078125 94.30078125 C29.54152344 93.54152344 28.78226563 92.78226563 28 92 C27.23042969 91.23042969 26.46085938 90.46085937 25.66796875 89.66796875 C7.87536736 72.79517874 -14.39962584 65.44588901 -38.56152344 65.64624023 C-65.59852501 66.3776031 -89.29795462 78.68662805 -107 99 Z " fill="#D0BCF5" transform="translate(292,8)"/>
<path d="M0 0 C0.66 0.33 1.32 0.66 2 1 C-5.59 8.59 -13.18 16.18 -21 24 C-21 21 -21 21 -19.42578125 19.1328125 C-18.72839844 18.47023438 -18.03101563 17.80765625 -17.3125 17.125 C-16.57644531 16.41601562 -15.84039062 15.70703125 -15.08203125 14.9765625 C-14.05142578 13.99816406 -14.05142578 13.99816406 -13 13 C-12.175 12.175 -11.35 11.35 -10.5 10.5 C-7 7 -3.5 3.5 0 0 Z " fill="#433D4F" transform="translate(154,41)"/>
</svg>
