<?xml version="1.0" encoding="UTF-8"?>
<svg version="1.1" xmlns="http://www.w3.org/2000/svg" width="512" height="512">
<path d="M0 0 C1.6004379 -0.00668677 1.6004379 -0.00668677 3.23320788 -0.01350862 C4.99785993 -0.01323207 4.99785993 -0.01323207 6.79816151 -0.01294994 C8.66789016 -0.01846498 8.66789016 -0.01846498 10.57539111 -0.02409142 C14.04205135 -0.03411438 17.50869427 -0.03782869 20.97536695 -0.04048073 C24.71170595 -0.04438291 28.44803122 -0.05396132 32.18436146 -0.0626936 C41.21103295 -0.08246055 50.23770557 -0.09252455 59.2643933 -0.10142139 C63.51463136 -0.10580395 67.76486817 -0.11117084 72.01510525 -0.11641026 C86.14290801 -0.13342284 100.27070999 -0.14791716 114.39852142 -0.155159 C118.0651668 -0.15706891 121.73181217 -0.15898924 125.39845753 -0.16094494 C126.76545723 -0.16167055 126.76545723 -0.16167055 128.16007308 -0.16241082 C142.92406305 -0.17071165 157.68797202 -0.19604932 172.45192661 -0.22852562 C187.60778817 -0.26159234 202.76360855 -0.27960741 217.91950637 -0.28280324 C226.42978552 -0.2849687 234.93994654 -0.29372269 243.45019054 -0.31926441 C250.69775713 -0.34096615 257.9451769 -0.34902446 265.19277229 -0.33929763 C268.89001051 -0.33475135 272.58694578 -0.33665786 276.28414249 -0.35605907 C280.29480686 -0.37692326 284.3047987 -0.36671064 288.31549549 -0.35352612 C289.48077658 -0.36449536 290.64605767 -0.37546461 291.8466503 -0.38676625 C299.06396675 -0.32942258 304.94940636 0.48089081 310.39114779 5.54613417 C314.87942922 10.58778254 316.12158288 15.03872718 316.14844227 21.66649342 C316.15367895 22.30891115 316.15891563 22.95132889 316.16431099 23.61321384 C316.17926809 25.75789385 316.18001519 27.90233436 316.18068409 30.04706287 C316.18830864 31.58820973 316.19673664 33.12935279 316.20590687 34.67049122 C316.2278335 38.85255876 316.23664864 43.03455318 316.24173331 47.21667171 C316.24537997 49.83244963 316.25162174 52.4482085 316.2587347 55.06397915 C316.28322576 64.19832288 316.29627972 73.33260987 316.29982471 82.46698475 C316.30345661 90.96658865 316.33332789 99.46583071 316.3752293 107.9653241 C316.40998734 115.27338887 316.42537413 122.58133407 316.42607075 129.88948089 C316.42686188 134.24940234 316.43552439 138.60895533 316.46406841 142.96879101 C316.49034292 147.07379682 316.49240255 151.1781312 316.47641277 155.2831831 C316.47460552 156.78351786 316.48122329 158.28389205 316.49723148 159.78414249 C316.58477962 168.52731494 316.02183773 175.75139031 310.87428761 183.13422108 C306.71066479 187.23486472 301.72089567 189.46458886 295.87428761 189.75922108 C289.14236187 189.30335839 283.37081416 186.94021901 277.93678761 183.00922108 C272.43235266 175.33637237 272.44913769 166.36242152 272.53371143 157.24896717 C272.53334983 155.97900206 272.53298822 154.70903694 272.53261566 153.40058804 C272.53194408 149.99489906 272.54920982 146.58953247 272.57044697 143.18391895 C272.5876536 139.97701416 272.5883429 136.77012155 272.59047413 133.56317616 C272.60615627 124.21181584 272.6480401 114.86051427 272.68678761 105.50922108 C272.74866261 84.59547108 272.81053761 63.68172108 272.87428761 42.13422108 C190.37428761 42.13422108 107.87428761 42.13422108 22.87428761 42.13422108 C22.87428761 180.07422108 22.87428761 318.01422108 22.87428761 460.13422108 C105.37428761 460.13422108 187.87428761 460.13422108 272.87428761 460.13422108 C272.75559536 418.41455828 272.75559536 418.41455828 272.60402393 376.69501209 C272.59047413 368.61066151 272.59047413 368.61066151 272.58795643 364.82133961 C272.5833612 362.18489433 272.57396696 359.54888599 272.55756092 356.91252613 C272.53298778 352.91025278 272.53257171 348.90829821 272.53371143 344.90594959 C272.52291711 343.73918218 272.51212278 342.57241476 272.50100136 341.37029076 C272.52636068 334.69889774 273.3478178 329.30696799 275.87428761 323.13422108 C276.20428761 322.14422108 276.53428761 321.15422108 276.87428761 320.13422108 C281.85519747 315.39250745 287.45173231 313.45112434 294.24928761 312.82172108 C300.83006618 313.38902957 307.29258175 315.15979758 311.87428761 320.13422108 C316.76669992 327.71820028 316.44330734 335.84632341 316.39186573 344.53290272 C316.39729403 346.07788723 316.40442065 347.62286656 316.41310596 349.16783619 C316.43125678 353.34139147 316.42430657 357.51454884 316.41158962 361.68811059 C316.40142082 366.06724749 316.41086587 370.44635167 316.41713428 374.82549 C316.42439867 382.17659047 316.41485403 389.52752986 316.39577198 396.87860584 C316.37399741 405.36467388 316.38106363 413.85035755 316.4030776 422.3364163 C316.42125649 429.6377573 316.42377803 436.9389829 316.41332293 444.24033922 C316.40710269 448.59446093 316.4062119 452.94840222 316.41946888 457.30251217 C316.43106341 461.39604763 316.42293647 465.48908958 316.39989185 469.58257198 C316.39462425 471.08050182 316.39608504 472.57847354 316.40494251 474.07638645 C316.45513989 483.43116305 316.04249468 490.23044804 309.74928761 497.63422108 C307.87428761 499.13422108 307.87428761 499.13422108 305.87428761 499.13422108 C305.54428761 499.79422108 305.21428761 500.45422108 304.87428761 501.13422108 C301.78848394 502.23312727 298.83814724 502.26129637 295.5859127 502.26564884 C294.50814617 502.26948999 293.43037963 502.27333113 292.3199535 502.27728868 C291.13660339 502.27642219 289.95325328 502.27555571 288.73404408 502.27466297 C287.47642008 502.27763409 286.21879608 502.28060522 284.92306226 502.28366637 C281.4300639 502.2917337 277.93708609 502.29352579 274.44407952 502.29426384 C270.6778239 502.2961148 266.91157893 502.30366224 263.14532948 502.31039906 C254.90995755 502.32397984 246.67459049 502.33000637 238.43920922 502.33440971 C233.29860948 502.33717192 228.15801161 502.34140917 223.01741314 502.34591389 C208.78833764 502.35810499 194.55926364 502.36840542 180.33018303 502.37178898 C179.41955706 502.37200854 178.50893109 502.37222811 177.57071039 502.37245433 C176.20148896 502.37278175 176.20148896 502.37278175 174.8046065 502.37311578 C172.95486804 502.37355925 171.10512958 502.37400581 169.25539112 502.37445545 C167.87908743 502.3747876 167.87908743 502.3747876 166.47497963 502.37512645 C151.59911177 502.37907664 136.72329284 502.39653811 121.84744389 502.41981497 C106.57969361 502.44351259 91.3119679 502.45599006 76.04419893 502.4571569 C67.46977921 502.45807442 58.89542326 502.4638464 50.32102108 502.48197651 C43.02180593 502.49735589 35.72267428 502.5025107 28.42344601 502.49423841 C24.69827068 502.49032453 20.97326362 502.4912973 17.24810886 502.50529575 C13.21245516 502.52032265 9.1771827 502.51219034 5.14151478 502.50171375 C3.96039539 502.50977016 2.779276 502.51782656 1.56236511 502.5261271 C0.48199083 502.51953726 -0.59838345 502.51294741 -1.71149635 502.50615788 C-2.64306035 502.50675496 -3.57462436 502.50735205 -4.53441757 502.50796723 C-8.98565483 501.86595892 -12.15949264 499.52086211 -14.93821239 496.07172108 C-17.12571239 493.13422108 -17.12571239 493.13422108 -17.12571239 491.13422108 C-17.78571239 490.80422108 -18.44571239 490.47422108 -19.12571239 490.13422108 C-19.15993868 444.61963723 -19.19178126 399.10505206 -19.21039867 353.59045887 C-19.21081285 352.58050539 -19.21081285 352.58050539 -19.21123538 351.55014882 C-19.21722077 336.91855177 -19.2227612 322.28695459 -19.22784305 307.6553572 C-19.23033779 300.48034304 -19.23293089 293.30532893 -19.23557568 286.13031483 C-19.23583719 285.41630306 -19.23609871 284.70229128 -19.23636816 283.96664279 C-19.2448955 260.81073179 -19.25992158 237.65483052 -19.27830684 214.49892542 C-19.29716101 190.70929261 -19.30948073 166.9196652 -19.31354237 143.13002505 C-19.31411871 139.77225979 -19.31476998 136.41449455 -19.31546688 133.05672932 C-19.31560173 132.39585308 -19.31573657 131.73497684 -19.31587551 131.05407405 C-19.3183879 119.74479411 -19.32903981 108.43553859 -19.34154533 97.12626621 C-19.35208682 87.08386314 -19.35531948 77.04147459 -19.35271515 66.99906638 C-19.35142943 61.19818835 -19.3534518 55.39735931 -19.36412334 49.59648991 C-19.37381142 44.29170878 -19.37437638 38.98700988 -19.36751018 33.68222508 C-19.36666079 31.75753511 -19.36923538 29.83284015 -19.37547876 27.90816012 C-19.38344337 25.30250979 -19.37921637 22.69716072 -19.37180805 20.09151554 C-19.37706208 19.33514647 -19.38231611 18.57877741 -19.38772935 17.79948807 C-19.36372865 14.0927214 -19.25894108 11.23953462 -17.12571239 8.13422108 C-15.06711864 6.24750233 -15.06711864 6.24750233 -12.68821239 4.44672108 C-11.90575146 3.84472889 -11.12329052 3.2427367 -10.31711864 2.62250233 C-6.84193619 0.26235168 -4.09162981 0.00791941 0 0 Z " fill="#CAB6EE" transform="translate(24.125712394714355,4.865778923034668)"/>
<path d="M0 0 C11.90667178 6.99538714 21.60190036 18.97189474 31.26953125 28.671875 C32.92455921 30.32877208 34.57981108 31.98544551 36.23527527 33.64190674 C40.56735886 37.97778457 44.89643183 42.31665593 49.22485352 46.65618896 C53.63180566 51.0733922 58.04160553 55.48775046 62.45117188 59.90234375 C69.56665063 67.02658565 76.68039599 74.15255279 83.79188538 81.28077698 C84.41536865 81.90570541 85.03885193 82.53063385 85.68122864 83.17449951 C86.55018737 84.04747555 86.55018737 84.04747555 87.43670082 84.93808746 C88.47801435 85.97851285 89.52482596 87.0134819 90.57854271 88.04134369 C94.44957921 91.82783782 95.87354495 94.46436281 96.36328125 99.90234375 C96.36714844 101.08957031 96.37101562 102.27679688 96.375 103.5 C96.39175781 104.68464844 96.40851563 105.86929688 96.42578125 107.08984375 C95.7393032 113.65198338 92.58442501 117.1437163 88.0625 121.5625 C86.85539621 122.77265524 85.65030356 123.98481832 84.44671631 125.19847107 C83.77130295 125.87821991 83.09588959 126.55796875 82.40000916 127.25831604 C81.67471512 127.98832321 80.94942108 128.71833038 80.20214844 129.47045898 C72.28633374 137.43541026 64.36284707 145.39268803 56.43488693 153.34554958 C51.64373125 158.15216592 46.85543943 162.96157219 42.07373047 167.77758789 C37.43886792 172.44568489 32.79607401 177.10579407 28.14844513 181.7611866 C26.38366354 183.53149095 24.62151475 185.30442411 22.86211395 187.08007622 C20.39521913 189.56885797 17.91898146 192.04798086 15.44042969 194.52514648 C14.36463402 195.6171209 14.36463402 195.6171209 13.2671051 196.7311554 C6.51014703 203.44753396 -0.31694535 209.51552715 -10.16015625 209.9296875 C-17.21023099 208.99761011 -23.54040229 203.98558717 -27.9375 198.5625 C-27.9375 197.5725 -27.9375 196.5825 -27.9375 195.5625 C-28.5975 195.2325 -29.2575 194.9025 -29.9375 194.5625 C-30.07585192 192.77314847 -30.17096563 190.98045112 -30.25 189.1875 C-30.33701172 187.69089844 -30.33701172 187.69089844 -30.42578125 186.1640625 C-28.97840117 175.488187 -21.54537857 168.48828967 -14.16796875 161.3046875 C-13.12026703 160.26633326 -12.07368003 159.22685319 -11.02815247 158.18630981 C-8.29865776 155.47573266 -5.55448256 152.78052374 -2.8067627 150.08843994 C0.00454602 147.3286559 2.8014189 144.55432284 5.59960938 141.78125 C11.0733637 136.36081358 16.56273942 130.95656141 22.0625 125.5625 C21.21790205 125.55989563 21.21790205 125.55989563 20.35624152 125.55723864 C-13.00413863 125.45424504 -46.36449782 125.34614003 -79.72483952 125.23138306 C-83.72907583 125.21761323 -87.73331228 125.20388617 -91.73754883 125.19018555 C-92.93332272 125.18609309 -92.93332272 125.18609309 -94.15325365 125.18191796 C-107.06675444 125.1378244 -119.98026394 125.09719713 -132.89377996 125.05784739 C-146.1409528 125.01740391 -159.38810949 124.97324349 -172.6352585 124.92562145 C-180.8116325 124.89634578 -188.98800531 124.86998087 -197.16440038 124.84732103 C-203.43054329 124.8296449 -209.69665761 124.80680124 -215.96277618 124.78200912 C-218.5359243 124.77264249 -221.10907919 124.76496581 -223.68223763 124.75908089 C-227.18815068 124.75081321 -230.69398895 124.73653447 -234.19987488 124.72071838 C-235.22419387 124.71974028 -236.24851285 124.71876217 -237.30387181 124.71775442 C-238.24389367 124.71227998 -239.18391553 124.70680554 -240.1524229 124.7011652 C-241.36619894 124.69717814 -241.36619894 124.69717814 -242.6044957 124.69311053 C-245.12418755 124.55204852 -247.47713067 124.11174973 -249.9375 123.5625 C-249.9375 122.9025 -249.9375 122.2425 -249.9375 121.5625 C-250.515 121.335625 -251.0925 121.10875 -251.6875 120.875 C-256.23853284 118.22023084 -259.08303361 113.6012713 -260.4921875 108.58984375 C-261.62851712 101.17598587 -259.23409018 95.15568036 -255.9375 88.5625 C-255.2775 88.5625 -254.6175 88.5625 -253.9375 88.5625 C-253.9375 87.9025 -253.9375 87.2425 -253.9375 86.5625 C-247.09964575 82.84135612 -241.43489509 81.98438743 -233.71885681 82.04351807 C-232.07185936 82.03226619 -232.07185936 82.03226619 -230.39158922 82.020787 C-226.72953362 82.00056267 -223.06810026 82.00860262 -219.40600586 82.01660156 C-216.77416371 82.00786375 -214.14232688 81.99737725 -211.51049805 81.98527527 C-205.85317729 81.96201241 -200.19598454 81.95321253 -194.53861809 81.95438385 C-186.35916319 81.95605621 -178.17987846 81.93568665 -170.00046904 81.91002855 C-156.72826695 81.86898927 -143.45609556 81.84564525 -130.18383789 81.83349609 C-117.29513602 81.82165999 -104.4064919 81.80144858 -91.51782227 81.77001953 C-90.3250773 81.76711538 -90.3250773 81.76711538 -89.10823648 81.76415256 C-85.11892482 81.75438767 -81.12961359 81.74445862 -77.14030254 81.73444796 C-44.07272643 81.65168132 -11.00516153 81.59766061 22.0625 81.5625 C21.47812164 80.98478348 20.89374329 80.40706696 20.29165649 79.81184387 C14.78091041 74.3612541 9.27745569 68.90345321 3.78200722 63.43744373 C0.95660914 60.62768941 -1.87150621 57.82078898 -4.70605469 55.02026367 C-7.44237434 52.31658315 -10.17126142 49.60560131 -12.89519119 46.88944054 C-13.93475638 45.85541065 -14.97695496 44.82402118 -16.02183151 43.79535866 C-17.48698444 42.3520403 -18.94242004 40.89954433 -20.39599609 39.44458008 C-21.22650482 38.62073318 -22.05701355 37.79688629 -22.91268921 36.94807434 C-24.96007709 34.53590031 -25.84439937 32.49600169 -26.9375 29.5625 C-27.5975 29.2325 -28.2575 28.9025 -28.9375 28.5625 C-31.21468927 23.12254786 -31.6783874 18.22038406 -29.9375 12.5625 C-29.2775 12.5625 -28.6175 12.5625 -27.9375 12.5625 C-27.9375 11.2425 -27.9375 9.9225 -27.9375 8.5625 C-27.2775 8.5625 -26.6175 8.5625 -25.9375 8.5625 C-25.68871094 7.95792969 -25.43992187 7.35335937 -25.18359375 6.73046875 C-23.73952545 4.21806152 -22.47614187 3.33670758 -20 1.875 C-19.31035156 1.45863281 -18.62070312 1.04226562 -17.91015625 0.61328125 C-12.29671318 -2.37684981 -5.81503179 -2.60021747 0 0 Z " fill="#C8B4EB" transform="translate(410.9375,152.4375)"/>
<path d="M0 0 C0.763125 0.309375 1.52625 0.61875 2.3125 0.9375 C6.14857069 2.45408609 9.02721747 3.12687342 13.13244152 3.1386652 C14.73505471 3.14687687 14.73505471 3.14687687 16.37004393 3.15525442 C17.54804464 3.15623253 18.72604535 3.15721064 19.93974304 3.15821838 C21.18778979 3.16315636 22.43583653 3.16809434 23.72170287 3.17318195 C27.19240153 3.18678071 30.66309038 3.19418644 34.13380873 3.20060861 C37.87408897 3.20860493 41.61434873 3.22230535 45.35461426 3.23532104 C51.83705188 3.25709471 58.31949155 3.27523594 64.80194664 3.29092598 C74.17454501 3.3136165 83.54712072 3.34176046 92.91969988 3.37124526 C108.12524891 3.4189312 123.33080719 3.46219267 138.53637695 3.50268555 C153.30917074 3.54203538 168.0819563 3.58346037 182.85473633 3.62768555 C184.22010455 3.63177196 184.22010455 3.63177196 185.61305597 3.63594092 C190.1793859 3.64962031 194.74571571 3.6633406 199.31204545 3.67708123 C237.20801322 3.79106174 275.10399854 3.89786762 313 4 C313 4.33 313 4.66 313 5 C273.84774256 5.0686355 234.69549296 5.12151321 195.5431874 5.15319599 C190.92307861 5.1569482 186.30296994 5.16083116 181.68286133 5.16479492 C180.30316463 5.16597532 180.30316463 5.16597532 178.89559527 5.16717956 C163.99361122 5.18024087 149.09166181 5.2038987 134.18969832 5.23145839 C118.90399859 5.25949242 103.61831704 5.27617202 88.33259267 5.28226548 C78.89708128 5.28638609 69.4616678 5.29941036 60.02618655 5.3237494 C53.5598505 5.33958189 47.09356523 5.34440601 40.62721119 5.34050413 C36.89395833 5.3385787 33.16087682 5.34157323 29.42765427 5.35761642 C25.38303791 5.3748712 21.33878833 5.36897867 17.29414368 5.36076355 C15.51837187 5.37387134 15.51837187 5.37387134 13.7067259 5.38724393 C12.62388482 5.38127078 11.54104374 5.37529764 10.42538929 5.36914349 C9.491657 5.37028265 8.55792471 5.37142181 7.5958975 5.37259549 C4.45336699 4.92154043 2.53815873 3.88158828 0 2 C0 1.34 0 0.68 0 0 Z " fill="#000000" transform="translate(12,502)"/>
<path d="" fill="#000000" transform="translate(0,0)"/>
<path d="" fill="#000000" transform="translate(0,0)"/>
<path d="" fill="#000000" transform="translate(0,0)"/>
<path d="" fill="#000000" transform="translate(0,0)"/>
</svg>
