<?xml version="1.0" encoding="UTF-8"?>
<svg version="1.1" xmlns="http://www.w3.org/2000/svg" width="512" height="512">
<path d="M0 0 C0.66483398 0.35175293 1.32966797 0.70350586 2.01464844 1.06591797 C11.90637915 6.3337736 21.06564647 12.24258356 30 19 C30.56928223 19.42506836 31.13856445 19.85013672 31.72509766 20.28808594 C47.81961891 32.3487675 62.50285538 46.24540293 75 62 C75.80695313 63.00160156 76.61390625 64.00320312 77.4453125 65.03515625 C115.35414655 112.64125206 129.53164417 174.28701261 123.3515625 234.33984375 C118.4366324 273.54981434 102.85195031 310.58158814 79 342 C78.26910156 342.96292969 77.53820312 343.92585938 76.78515625 344.91796875 C72.1323939 350.86060581 67.08832554 356.43068846 62 362 C60.75669922 363.39992188 60.75669922 363.39992188 59.48828125 364.828125 C54.60246874 370.30502356 49.64825676 375.3220586 44 380 C43.15308594 380.73476563 42.30617188 381.46953125 41.43359375 382.2265625 C7.94662451 410.92967899 -32.49617193 429.79330525 -76 437 C-77.17103271 437.19480957 -77.17103271 437.19480957 -78.36572266 437.39355469 C-97.46962142 440.39866236 -128.30615528 443.84692236 -146 435 C-144.38564783 428.99102247 -141.29029922 423.98197531 -138.125 418.6875 C-137.59519531 417.76904297 -137.06539062 416.85058594 -136.51953125 415.90429688 C-136.00003906 415.03224609 -135.48054687 414.16019531 -134.9453125 413.26171875 C-134.47625488 412.46725342 -134.00719727 411.67278809 -133.52392578 410.85424805 C-131.64282446 408.565404 -130.92725445 408.29478206 -128 408 C-125.44232077 407.96310693 -122.91436724 407.97877841 -120.359375 408.04296875 C-118.80983861 408.06902422 -117.26027574 408.0935396 -115.71069336 408.11669922 C-114.90082977 408.12924744 -114.09096619 408.14179565 -113.25656128 408.15472412 C-69.6303367 408.72518209 -28.5100687 395.5567935 7 370 C7.55880859 369.59813477 8.11761719 369.19626953 8.69335938 368.78222656 C16.79452797 362.8891725 24.24212977 356.39248804 31.46972656 349.46289062 C32.90281139 348.09290909 34.35317025 346.74106166 35.8046875 345.390625 C43.86613069 337.67967934 50.48551475 329.02870192 57 320 C57.45793945 319.36545898 57.91587891 318.73091797 58.38769531 318.07714844 C75.09110821 294.63748239 85.81737741 268.27459622 91 240 C91.24492187 238.70964844 91.48984375 237.41929687 91.7421875 236.08984375 C99.77387095 184.65406276 87.04527408 130.71542178 56.58129883 88.79833984 C50.84754431 81.06546724 44.69575144 73.91364708 38 67 C37.49887695 66.4730957 36.99775391 65.94619141 36.48144531 65.40332031 C0.36055729 27.48201419 -52.28565438 3.21775772 -104.734375 1.796875 C-159.34542765 1.08793377 -211.46057138 21.34612217 -251 59 C-251.70640625 59.65355469 -252.4128125 60.30710937 -253.140625 60.98046875 C-285.31792413 91.65354455 -303.89723364 137.80314633 -310 181 C-310.1016748 181.66410889 -310.20334961 182.32821777 -310.30810547 183.01245117 C-314.21558659 212.03298612 -310.72232586 242.24764368 -302 270 C-301.77473633 270.71849121 -301.54947266 271.43698242 -301.31738281 272.17724609 C-297.3444574 284.47312362 -291.17782526 295.69322745 -285 307 C-282.07406101 304.41881416 -280.39875188 301.45483134 -278.48828125 298.07421875 C-277.99040352 297.19815727 -277.99040352 297.19815727 -277.48246765 296.30439758 C-276.42121262 294.43466045 -275.36671945 292.5612113 -274.3125 290.6875 C-273.62350066 289.47044612 -272.93405127 288.2536469 -272.24414062 287.03710938 C-270.86452342 284.60327366 -269.4873608 282.16807322 -268.11181641 279.73193359 C-264.76399215 273.80831631 -261.38075796 267.90486095 -258 262 C-254.40748346 263.12479716 -251.16777535 264.29991085 -247.94140625 266.2421875 C-247.22533203 266.66886719 -246.50925781 267.09554688 -245.77148438 267.53515625 C-245.04251953 267.97730469 -244.31355469 268.41945313 -243.5625 268.875 C-242.10570138 269.74778424 -240.64867261 270.62018445 -239.19140625 271.4921875 C-238.49289551 271.91209961 -237.79438477 272.33201172 -237.07470703 272.76464844 C-234.07319187 274.55185328 -231.03937534 276.27808775 -228 278 C-231.53323878 285.39364801 -235.54013608 292.3872364 -239.8125 299.375 C-245.37321824 308.55742024 -250.81245549 317.79701985 -256.125 327.125 C-256.45728607 327.7082605 -256.78957214 328.291521 -257.13192749 328.89245605 C-260.66444033 335.09747571 -264.17839586 341.31296654 -267.6875 347.53125 C-268.26870605 348.5610498 -268.84991211 349.59084961 -269.44873047 350.65185547 C-270.5223858 352.55616287 -271.59447298 354.46135577 -272.66455078 356.36767578 C-276.00788886 362.30829944 -279.46391118 368.1720885 -283 374 C-287.59971438 372.6463303 -291.30573069 370.77313668 -295.375 368.25 C-296.71132036 367.43209 -298.04862987 366.61579475 -299.38671875 365.80078125 C-300.12067871 365.35299316 -300.85463867 364.90520508 -301.61083984 364.44384766 C-306.10768644 361.72625612 -310.64816717 359.08330804 -315.1875 356.4375 C-316.1983667 355.8482373 -317.2092334 355.25897461 -318.25073242 354.65185547 C-325.61591879 350.36779581 -333.00233396 346.12171344 -340.40087891 341.89562988 C-342.1764924 340.88128823 -343.95153719 339.86595642 -345.7265625 338.85058594 C-351.27136628 335.68153365 -356.82620321 332.53245842 -362.40625 329.42578125 C-363.87735229 328.60134521 -363.87735229 328.60134521 -365.37817383 327.76025391 C-367.20442459 326.7378582 -369.0348004 325.72278423 -370.86987305 324.71630859 C-371.66949463 324.26723145 -372.46911621 323.8181543 -373.29296875 323.35546875 C-373.9893042 322.97028076 -374.68563965 322.58509277 -375.40307617 322.18823242 C-377 321 -377 321 -378 318 C-376.78417969 315.28857422 -376.78417969 315.28857422 -374.921875 312.0546875 C-374.4310141 311.19896652 -374.4310141 311.19896652 -373.93023682 310.32595825 C-373.23566579 309.12115116 -372.53595743 307.91929337 -371.83154297 306.72021484 C-370.75453609 304.882739 -369.69862462 303.03428828 -368.64453125 301.18359375 C-367.96737955 300.0149093 -367.28903331 298.84691599 -366.609375 297.6796875 C-365.6807666 296.08229736 -365.6807666 296.08229736 -364.73339844 294.45263672 C-363 292 -363 292 -360 291 C-357.57421875 292.08886719 -357.57421875 292.08886719 -354.6875 293.796875 C-353.61999512 294.42134521 -352.55249023 295.04581543 -351.45263672 295.68920898 C-350.3016568 296.37597006 -349.15077989 297.0629038 -348 297.75 C-346.83018073 298.4385862 -345.6597665 299.12616261 -344.48876953 299.81274414 C-342.12413373 301.20068786 -339.76255915 302.59362591 -337.40332031 303.99072266 C-332.57921429 306.83881394 -327.72785702 309.63879235 -322.875 312.4375 C-321.33050699 313.33164759 -319.78621161 314.22613671 -318.2421875 315.12109375 C-317.17226563 315.74113281 -316.10234375 316.36117188 -315 317 C-315.4846875 316.07703125 -315.969375 315.1540625 -316.46875 314.203125 C-333.55411377 281.17715987 -342.21709433 246.02324061 -342.25 208.8125 C-342.25067474 208.11746368 -342.25134949 207.42242737 -342.25204468 206.70632935 C-342.17175765 154.09731823 -324.8785746 100.38543783 -292 59 C-291.25363281 58.04351562 -290.50726563 57.08703125 -289.73828125 56.1015625 C-272.99353371 35.1180189 -253.3943167 17.31919947 -230 4 C-229.07018311 3.45641846 -229.07018311 3.45641846 -228.12158203 2.90185547 C-156.93699545 -38.38555361 -72.27487087 -38.60588909 0 0 Z " fill="#C5B1E7" transform="translate(383,51)"/>
<path d="M0 0 C0.66 0.33 1.32 0.66 2 1 C-7.24 10.24 -16.48 19.48 -26 29 C-26 25.42399803 -25.47693642 25.06829154 -23.10546875 22.55859375 C-22.17359741 21.56569336 -22.17359741 21.56569336 -21.22290039 20.55273438 C-20.55121826 19.85470703 -19.87953613 19.15667969 -19.1875 18.4375 C-18.51130615 17.72529297 -17.8351123 17.01308594 -17.13842773 16.27929688 C-11.66600042 10.56848854 -5.98203252 5.17364975 0 0 Z " fill="#3D3748" transform="translate(124,75)"/>
</svg>
