<?xml version="1.0" encoding="UTF-8"?>
<svg version="1.1" xmlns="http://www.w3.org/2000/svg" width="800" height="800">
<path d="M0 0 C5.28809487 3.0205461 9.5737922 7.18071552 13.94140625 11.3671875 C16.61608803 13.92244083 19.41689731 16.25792341 22.3125 18.5625 C27.35086194 22.61351724 32.0405476 26.95973557 36.7434082 31.38793945 C41.05613132 35.42680141 45.53579641 39.1768989 50.1484375 42.87109375 C54.56426016 46.53857671 58.72533535 50.4727234 62.921875 54.38671875 C65.37304442 56.67187576 67.85399104 58.91671162 70.375 61.125 C70.98859375 61.66382813 71.6021875 62.20265625 72.234375 62.7578125 C73.80656319 64.07758516 75.46350011 65.29459812 77.125 66.5 C82.80720773 71.92966516 85.22983144 77.85130733 85.5625 85.6875 C85.13580172 94.77617341 81.94890556 100.63140315 75.3125 106.75 C73.53608655 108.24745074 71.74391989 109.72638719 69.9375 111.1875 C68.59751953 112.29931641 68.59751953 112.29931641 67.23046875 113.43359375 C64.48072732 115.70340892 61.71134671 117.94723625 58.9375 120.1875 C57.22799047 121.58189257 55.51967533 122.9777506 53.8125 124.375 C52.905 125.1175 51.9975 125.86 51.0625 126.625 C47.3072459 129.70194904 43.55996725 132.78857613 39.8125 135.875 C38.730896 136.76529907 38.730896 136.76529907 37.62744141 137.67358398 C33.92099794 140.72549227 30.21856932 143.78205933 26.5234375 146.84765625 C22.99552805 149.77275764 19.45502572 152.68185775 15.90380859 155.57861328 C14.62922922 156.6215085 13.35846181 157.66908693 12.09228516 158.72216797 C3.95538788 165.47771126 -3.09515966 170.68213899 -14.0625 170.1875 C-21.32969668 169.10199106 -27.78498119 166.25115874 -32.5 160.5 C-36.7723059 154.04299222 -38.92627306 147.05259761 -37.625 139.33984375 C-34.7053644 128.16818252 -25.93247926 121.66540958 -17.1640625 114.8515625 C-15.00883801 113.21077553 -15.00883801 113.21077553 -13.0625 111.1875 C-12.89562552 108.60395782 -12.89562552 108.60395782 -13.0625 106.1875 C-13.949375 106.66316406 -14.83625 107.13882813 -15.75 107.62890625 C-21.28047141 109.99099386 -27.13370706 109.85014996 -33.0625 110.125 C-84.34493285 113.18209988 -131.25658957 133.90336466 -166.0625 172.1875 C-197.02158653 207.36532998 -213.06585506 253.88521485 -210.875 300.625 C-210.67054207 303.82073167 -210.39172607 307.00232089 -210.0625 310.1875 C-209.98402832 310.9501416 -209.90555664 311.7127832 -209.82470703 312.49853516 C-204.81934597 357.11153596 -181.0698363 400.92293248 -146.14086914 429.28686523 C-105.12967931 461.81571856 -54.71345897 476.75694476 -2.5546875 470.9375 C32.78554924 466.4522507 68.24656852 452.03634155 94.9375 428.1875 C95.8965625 427.34832031 96.855625 426.50914062 97.84375 425.64453125 C134.25242204 393.38539865 155.52702311 348.89845408 158.72558594 300.41821289 C158.86354522 298.07083888 158.9823827 295.72223734 159.07910156 293.37280273 C159.49617589 285.38940433 160.7559086 279.77319335 166.12109375 273.7265625 C167.23677734 272.77910156 167.23677734 272.77910156 168.375 271.8125 C169.11621094 271.16539062 169.85742188 270.51828125 170.62109375 269.8515625 C176.18067929 265.85766125 182.47047461 264.84092044 189.203125 265.36328125 C196.33320715 266.59733393 202.37837792 269.83435262 206.80078125 275.62890625 C218.34700514 294.11939845 210.41795158 324.76027608 205.81689453 344.6953125 C197.34629376 378.33314523 182.19486868 409.54222792 159.9375 436.1875 C159.45812988 436.76838379 158.97875977 437.34926758 158.48486328 437.94775391 C148.31117577 450.2480876 137.53437676 461.34126254 124.9375 471.1875 C124.00035156 471.95320313 123.06320312 472.71890625 122.09765625 473.5078125 C82.63670692 505.09688648 32.26109251 522.49772565 -18.0625 524.1875 C-19.19816406 524.22875 -20.33382812 524.27 -21.50390625 524.3125 C-70.46015321 525.18769548 -122.21620915 511.24318368 -162.0625 482.1875 C-162.68463379 481.73761719 -163.30676758 481.28773438 -163.94775391 480.82421875 C-172.40376549 474.68910817 -180.41182938 468.31434092 -188.0625 461.1875 C-189.45394666 459.97411781 -190.84958639 458.76552197 -192.25 457.5625 C-199.6752046 451.05802077 -205.94914937 443.93225964 -212.0625 436.1875 C-212.56620117 435.55489258 -213.06990234 434.92228516 -213.58886719 434.27050781 C-221.22570644 424.64744667 -228.08079413 414.91711606 -234.0625 404.1875 C-234.42794922 403.54941406 -234.79339844 402.91132812 -235.16992188 402.25390625 C-264.01268534 351.76657332 -271.43152907 289.62681206 -256.68725586 233.52539062 C-249.26880575 206.80820384 -238.3351715 181.74265859 -222.0625 159.1875 C-221.34835938 158.18074219 -220.63421875 157.17398438 -219.8984375 156.13671875 C-207.65328835 139.32746855 -193.45964176 123.99137075 -177.0625 111.1875 C-176.10214844 110.41019531 -175.14179688 109.63289063 -174.15234375 108.83203125 C-164.94416882 101.5097278 -155.1486367 95.23044943 -145.0625 89.1875 C-144.43150391 88.80851562 -143.80050781 88.42953125 -143.15039062 88.0390625 C-111.03255081 69.07492179 -57.06517044 50.26150264 -19.078125 58.86328125 C-16.5625 59.6875 -16.5625 59.6875 -13.0625 61.1875 C-13.35190106 56.86994906 -14.945036 54.92741299 -18.12304688 52.08203125 C-18.65994141 51.62183594 -19.19683594 51.16164062 -19.75 50.6875 C-20.26755859 50.22730469 -20.78511719 49.76710937 -21.31835938 49.29296875 C-23.41030763 47.44330092 -25.51752208 45.62434544 -27.6965332 43.87768555 C-33.6000281 39.13833693 -36.95815647 33.80228478 -38.0625 26.25 C-38.4273314 18.896367 -36.58884683 12.65716397 -32 6.875 C-23.41372016 -1.96223582 -11.56509216 -5.06784938 0 0 Z " fill="#FFFFFF" transform="translate(426.0625,109.8125)"/>
</svg>
