<?xml version="1.0" encoding="UTF-8"?>
<svg version="1.1" xmlns="http://www.w3.org/2000/svg" width="512" height="512">
<path d="M0 0 C2.8872736 1.1477702 5.32527693 2.73837315 7.875 4.5 C8.50535156 4.90992188 9.13570313 5.31984375 9.78515625 5.7421875 C13.59845255 8.25393955 17.27774823 10.93245265 20.953125 13.640625 C28.42020898 19.1012608 36.15794778 24.15280895 43.875 29.25 C46.81171007 31.18998532 49.74629905 33.13312189 52.6796875 35.078125 C53.34120819 35.51360657 54.00272888 35.94908813 54.68429565 36.39776611 C65.52273786 43.58519361 65.52273786 43.58519361 67 48 C67.22213813 52.20581532 66.67253041 55.87911598 64.5 59.5 C60.84819243 61.69108454 57.2441516 62.52804374 53 62 C47.82838937 59.22977943 42.96455146 56.06589378 38.09765625 52.796875 C37.3750914 52.3142218 36.65252655 51.8315686 35.9080658 51.33428955 C33.62474277 49.80837437 31.34359319 48.27924603 29.0625 46.75 C27.50470043 45.70811928 25.94675907 44.66645054 24.38867188 43.625 C20.59080468 41.08578037 16.79488185 38.54367886 13 36 C14.39943899 50.29840397 14.39943899 50.29840397 17.1875 64.375 C17.40180664 65.24237793 17.61611328 66.10975586 17.83691406 67.00341797 C25.73207161 97.87493572 40.21295366 124.92063817 61 149 C61.83789062 149.9796875 62.67578125 150.959375 63.5390625 151.96875 C68.03451786 157.09758567 72.7304363 161.67913026 78 166 C78.49677246 166.41975098 78.99354492 166.83950195 79.50537109 167.27197266 C119.00654464 200.62465223 169.3573092 217.37752105 220.97460938 213.79345703 C272.59486775 209.31688053 321.05732511 185.13006026 354.63964844 145.47265625 C361.87335767 136.67662254 368.33142056 127.22919144 374.4375 117.625 C376.57815073 114.42333107 378.21802662 112.26065779 382 111 C386.74743368 110.62214303 389.31333598 111.42777998 393 114.5 C395.77148392 118.43633587 395.73805927 122.35347591 395 127 C393.65060298 130.2917866 391.80742842 133.12613776 389.8125 136.0625 C389.00425781 137.29250732 389.00425781 137.29250732 388.1796875 138.54736328 C382.65249143 146.80464956 376.52734836 154.51674707 370 162 C369.4946875 162.57975586 368.989375 163.15951172 368.46875 163.75683594 C332.33438029 204.80792653 280.74280903 231.65597382 226 236 C219.44111313 236.34251801 212.87852454 236.34079214 206.3125 236.3125 C204.99214249 236.30976578 204.99214249 236.30976578 203.64511108 236.30697632 C190.54491654 236.26133829 177.84597762 235.76736592 165 233 C164.15598633 232.82839355 163.31197266 232.65678711 162.44238281 232.47998047 C124.61506466 224.69036527 89.76600472 207.36706918 61.33984375 181.15234375 C59.03569416 179.03283386 56.68004566 176.98564658 54.3125 174.9375 C50.15386902 171.23690005 46.56339994 167.26709657 43 163 C42.26265625 162.16210938 41.5253125 161.32421875 40.765625 160.4609375 C11.25114808 126.34069826 -4.28483549 84.29149782 -10 40 C-14.35913814 45.85600462 -18.57174353 51.77380355 -22.578125 57.875 C-22.96125854 58.45757568 -23.34439209 59.04015137 -23.73913574 59.64038086 C-25.31329475 62.03792333 -26.88436695 64.43738438 -28.44726562 66.84228516 C-29.60965326 68.62819578 -30.78069898 70.40816888 -31.953125 72.1875 C-32.63536133 73.23292969 -33.31759766 74.27835937 -34.02050781 75.35546875 C-36.44372751 78.59280419 -38.38065859 80.68403094 -42.40234375 81.46875 C-46.75518065 81.52240592 -49.3247504 81.40514976 -53.125 79.125 C-55.76488558 74.7251907 -55.71548046 71.02874104 -55 66 C-53.71099424 62.81440239 -51.89933312 60.16162251 -49.91015625 57.37109375 C-49.37849854 56.58627625 -48.84684082 55.80145874 -48.29907227 54.99285889 C-46.57504732 52.45888473 -44.81971736 49.94854075 -43.0625 47.4375 C-41.86893298 45.69779523 -40.67745506 43.9566554 -39.48803711 42.21411133 C-37.11811667 38.74857423 -34.73629202 35.29175232 -32.34375 31.84179688 C-29.38673642 27.57200387 -26.4774575 23.27266682 -23.59375 18.953125 C-22.80866082 17.78058093 -22.02342933 16.60813212 -21.23803711 15.43579102 C-19.82093955 13.3199249 -18.40502633 11.20326494 -16.99047852 9.08569336 C-16.36584717 8.16409424 -15.74121582 7.24249512 -15.09765625 6.29296875 C-14.30113647 5.10997192 -14.30113647 5.10997192 -13.48852539 3.90307617 C-9.77853687 -0.84013533 -5.54615337 -0.80687805 0 0 Z " fill="#FEF2F2" transform="translate(55,246)"/>
<path d="M0 0 C1.32035751 0.00273422 1.32035751 0.00273422 2.66738892 0.00552368 C15.76758346 0.05116171 28.46652238 0.54513408 41.3125 3.3125 C42.15651367 3.48410645 43.00052734 3.65571289 43.87011719 3.83251953 C81.69743534 11.62213473 116.54649528 28.94543082 144.97265625 55.16015625 C147.27680584 57.27966614 149.63245434 59.32685342 152 61.375 C156.15863098 65.07559995 159.74910006 69.04540343 163.3125 73.3125 C164.04984375 74.15039062 164.7871875 74.98828125 165.546875 75.8515625 C195.06135192 109.97180174 210.59733549 152.02100218 216.3125 196.3125 C220.67163814 190.45649538 224.88424353 184.53869645 228.890625 178.4375 C229.27375854 177.85492432 229.65689209 177.27234863 230.05163574 176.67211914 C231.62579475 174.27457667 233.19686695 171.87511562 234.75976562 169.47021484 C235.92215326 167.68430422 237.09319898 165.90433112 238.265625 164.125 C239.28897949 162.55685547 239.28897949 162.55685547 240.33300781 160.95703125 C242.75622751 157.71969581 244.69315859 155.62846906 248.71484375 154.84375 C253.06768065 154.79009408 255.6372504 154.90735024 259.4375 157.1875 C262.07738558 161.5873093 262.02798046 165.28375896 261.3125 170.3125 C260.02349424 173.49809761 258.21183312 176.15087749 256.22265625 178.94140625 C255.69099854 179.72622375 255.15934082 180.51104126 254.61157227 181.31964111 C252.88754732 183.85361527 251.13221736 186.36395925 249.375 188.875 C248.18143298 190.61470477 246.98995506 192.3558446 245.80053711 194.09838867 C243.43061667 197.56392577 241.04879202 201.02074768 238.65625 204.47070312 C235.69923642 208.74049613 232.7899575 213.03983318 229.90625 217.359375 C229.12116082 218.53191907 228.33592933 219.70436788 227.55053711 220.87670898 C226.13343955 222.9925751 224.71752633 225.10923506 223.30297852 227.22680664 C222.67834717 228.14840576 222.05371582 229.07000488 221.41015625 230.01953125 C220.61363647 231.20252808 220.61363647 231.20252808 219.80102539 232.40942383 C217.97161903 234.74831551 216.30110906 236.13642301 213.32763672 236.66601562 C207.13124567 236.81384205 203.48115245 235.29720533 198.4375 231.8125 C197.80714844 231.40257812 197.17679687 230.99265625 196.52734375 230.5703125 C192.71404745 228.05856045 189.03475177 225.38004735 185.359375 222.671875 C177.89229102 217.2112392 170.15455222 212.15969105 162.4375 207.0625 C159.50078993 205.12251468 156.56620095 203.17937811 153.6328125 201.234375 C152.97129181 200.79889343 152.30977112 200.36341187 151.62820435 199.91473389 C140.78976214 192.72730639 140.78976214 192.72730639 139.3125 188.3125 C139.09036187 184.10668468 139.63996959 180.43338402 141.8125 176.8125 C145.46430757 174.62141546 149.0683484 173.78445626 153.3125 174.3125 C158.48411063 177.08272057 163.34794854 180.24660622 168.21484375 183.515625 C168.9374086 183.9982782 169.65997345 184.4809314 170.4044342 184.97821045 C172.68775723 186.50412563 174.96890681 188.03325397 177.25 189.5625 C178.80779957 190.60438072 180.36574093 191.64604946 181.92382812 192.6875 C185.72169532 195.22671963 189.51761815 197.76882114 193.3125 200.3125 C191.91306101 186.01409603 191.91306101 186.01409603 189.125 171.9375 C188.91069336 171.07012207 188.69638672 170.20274414 188.47558594 169.30908203 C180.58042839 138.43756428 166.09954634 111.39186183 145.3125 87.3125 C144.47460938 86.3328125 143.63671875 85.353125 142.7734375 84.34375 C138.27816262 79.21512024 133.54708113 74.6715462 128.3125 70.3125 C127.46429688 69.56484375 126.61609375 68.8171875 125.7421875 68.046875 C87.33440875 34.76711031 35.75332853 19.01843065 -14.66210938 22.51904297 C-66.28236775 26.99561947 -114.74482511 51.18243974 -148.32714844 90.83984375 C-155.56085767 99.63587746 -162.01892056 109.08330856 -168.125 118.6875 C-170.26565073 121.88916893 -171.90552662 124.05184221 -175.6875 125.3125 C-180.43493368 125.69035697 -183.00083598 124.88472002 -186.6875 121.8125 C-189.45898392 117.87616413 -189.42555927 113.95902409 -188.6875 109.3125 C-187.33810298 106.0207134 -185.49492842 103.18636224 -183.5 100.25 C-182.69175781 99.01999268 -182.69175781 99.01999268 -181.8671875 97.76513672 C-176.33999143 89.50785044 -170.21484836 81.79575293 -163.6875 74.3125 C-162.92953125 73.44286621 -162.92953125 73.44286621 -162.15625 72.55566406 C-121.04678969 25.8525337 -62.10171187 -0.26758815 0 0 Z " fill="#FEF2F2" transform="translate(250.6875,29.6875)"/>
</svg>
