<?xml version="1.0" encoding="UTF-8"?>
<svg version="1.1" xmlns="http://www.w3.org/2000/svg" width="512" height="512">
<path d="M0 0 C4.448349 3.88097076 8.74422905 7.90993821 13 12 C13.54543457 12.51820312 14.09086914 13.03640625 14.65283203 13.5703125 C22.38837853 20.94485169 29.27372532 28.66180498 35.66601562 37.22607422 C36.97926081 38.97242113 38.32188617 40.69212302 39.671875 42.41015625 C61.61091274 70.76000339 75.35853674 104.96550181 82 140 C82.16516113 140.85625977 82.33032227 141.71251953 82.50048828 142.59472656 C93.44289202 202.13860297 78.54483412 265.55194897 44.49121094 315.19970703 C41.14678807 319.92220642 37.62907786 324.49353638 34 329 C33.52626953 329.58942383 33.05253906 330.17884766 32.56445312 330.78613281 C21.48080667 344.43163719 9.06315835 357.41600843 -5 368 C-5.62003906 368.47469727 -6.24007813 368.94939453 -6.87890625 369.43847656 C-57.33181229 407.90044051 -119.84729696 424.56410213 -182.8125 416.875 C-236.20031333 409.35351249 -283.15487445 383.84512555 -321 346 C-322.13308594 344.91912109 -322.13308594 344.91912109 -323.2890625 343.81640625 C-338.9466039 328.70871163 -350.93583714 310.18906052 -361 291 C-361.60328125 289.85265381 -361.60328125 289.85265381 -362.21875 288.68212891 C-379.38902021 255.54216598 -387.48899527 219.49684449 -387.3125 182.3125 C-387.31034485 181.48650299 -387.3081897 180.66050598 -387.30596924 179.80947876 C-387.24992019 166.35430534 -386.62316685 153.23226106 -384 140 C-383.70996094 138.52829346 -383.70996094 138.52829346 -383.4140625 137.02685547 C-376.93541016 105.35844299 -364.79784172 74.41449263 -346 48 C-345.53126465 47.33210449 -345.0625293 46.66420898 -344.57958984 45.97607422 C-337.69464957 36.2299811 -330.10600301 27.37108733 -321.78222656 18.82910156 C-320.00801167 17.00822238 -318.25018486 15.17246071 -316.4921875 13.3359375 C-289.56877616 -14.49796372 -289.56877616 -14.49796372 -271.7890625 -15.1640625 C-262.85008487 -14.63824029 -254.65724005 -12.13849407 -248 -6 C-240.47459414 2.85112502 -236.91597245 10.32017008 -237 22 C-238.3526539 32.6355728 -242.21492678 40.20489535 -250.66162109 46.8293457 C-251.85968196 47.74559709 -253.06060409 48.65811764 -254.26416016 49.56713867 C-285.77028183 73.4283323 -305.94444291 106.7159417 -315 145 C-315.24991699 146.02528809 -315.24991699 146.02528809 -315.50488281 147.07128906 C-325.12418103 188.47609441 -315.82415377 234.57348793 -293.9375 270.44921875 C-292.04182254 273.37299547 -290.06675992 276.19483247 -288 279 C-287.40421143 279.81355957 -287.40421143 279.81355957 -286.79638672 280.64355469 C-281.95667214 287.21692616 -276.97029133 293.40722124 -271 299 C-269.33197997 300.6653122 -267.66541212 302.33207973 -266 304 C-239.14712926 330.76011471 -199.23131239 348.80931392 -161.15234375 349.23828125 C-160.42681305 349.24812042 -159.70128235 349.25795959 -158.95376587 349.26809692 C-109.93967376 349.79534093 -69.05941417 334.56024685 -33 301 C-31.98292969 300.06414062 -31.98292969 300.06414062 -30.9453125 299.109375 C-0.50467288 270.01350259 15.8203179 226.45840869 17 185 C17.36229821 139.82064284 0.73617876 97.53843932 -30.30078125 64.73046875 C-37.01785555 57.93562804 -43.96432622 51.95075893 -51.75 46.4375 C-60.22987749 40.37908453 -67.18538556 33.69326368 -69 23 C-70.05675703 11.74553765 -68.36960454 3.4775587 -61.875 -5.75 C-56.34018903 -12.41773603 -49.210603 -16.5341683 -40.625 -17.80859375 C-23.73450063 -19.04019266 -12.22358405 -10.50088916 0 0 Z " fill="#CDB8F1" transform="translate(407,89)"/>
<path d="M0 0 C8.69739188 6.21654378 13.65839344 14.10176981 15.66796875 24.55859375 C16.24699082 31.28558379 16.07859604 38.06721485 16.05615234 44.8125 C16.06022186 46.86669188 16.06556587 48.92088157 16.07208252 50.97506714 C16.0857166 56.53287537 16.08047358 62.09051585 16.07094526 67.64832687 C16.06332842 73.47592355 16.0703999 79.30350625 16.07510376 85.13110352 C16.08055541 94.91587898 16.07338517 104.70058643 16.05908203 114.48535156 C16.0427567 125.78367724 16.04804562 137.08184049 16.06456125 148.38016224 C16.07819292 158.09595278 16.08008754 167.81169455 16.07224524 177.52749157 C16.06757798 183.32362212 16.06691782 189.11967641 16.07685471 194.915802 C16.08554653 200.36599422 16.07946191 205.81597783 16.06217194 211.26614761 C16.05821894 213.26152323 16.05932071 215.25691652 16.06595993 217.252285 C16.14115537 242.1553911 16.14115537 242.1553911 6.66796875 252.55859375 C6.10335937 253.18894531 5.53875 253.81929688 4.95703125 254.46875 C-1.28395434 260.67023568 -9.81376402 263.63547266 -18.58203125 263.93359375 C-29.42693665 262.84910321 -37.10312782 259.55827079 -44.7265625 251.5859375 C-50.96058709 243.71377506 -52.48315332 235.86009034 -52.47247314 226.05220032 C-52.47544427 225.19743786 -52.47841539 224.34267539 -52.48147655 223.46201104 C-52.4901458 220.5987689 -52.4916703 217.73556867 -52.49316406 214.87231445 C-52.49779351 212.81886201 -52.50281835 210.76541042 -52.50820923 208.71195984 C-52.52132353 203.13325032 -52.52777637 197.55455284 -52.53221989 191.97583032 C-52.53515235 188.48900901 -52.53925751 185.00219098 -52.54372406 181.51537132 C-52.55739683 170.60171662 -52.5670644 159.68806941 -52.57092595 148.77440673 C-52.57540541 136.18414669 -52.59294911 123.59399528 -52.62192655 111.00376827 C-52.64355743 101.26685912 -52.653631 91.52998052 -52.65496707 81.79304761 C-52.65601414 75.98005985 -52.66190119 70.16717423 -52.67978668 64.35421181 C-52.69629146 58.88358926 -52.6984111 53.41314539 -52.68964767 47.94250679 C-52.68887858 45.93906424 -52.69320316 43.93561198 -52.70310593 41.93219376 C-52.76649062 28.30539487 -52.61330545 16.43382591 -43.33203125 5.55859375 C-31.50949369 -5.71660411 -14.41120499 -8.90742821 0 0 Z " fill="#CCB8EF" transform="translate(274.33203125,9.44140625)"/>
<path d="M0 0 C0.66 0.33 1.32 0.66 2 1 C0.41856529 2.43958847 -1.16522779 3.87658645 -2.75 5.3125 C-3.63171875 6.11300781 -4.5134375 6.91351563 -5.421875 7.73828125 C-7.55449328 9.60916911 -9.70187943 11.34084286 -12 13 C-9.3207201 6.97162023 -5.58783552 3.42889907 0 0 Z " fill="#383242" transform="translate(355,75)"/>
</svg>
