<?xml version="1.0" encoding="UTF-8"?>
<svg version="1.1" xmlns="http://www.w3.org/2000/svg" width="512" height="512">
<path d="M0 0 C0.92353271 0.00215515 1.84706543 0.0043103 2.79858398 0.00653076 C16.84929699 0.05905849 30.56128832 0.5299175 44.375 3.3125 C45.40399414 3.51649414 46.43298828 3.72048828 47.49316406 3.93066406 C105.57182575 15.75289831 159.46063361 46.35945911 196.375 93.3125 C197.15488281 94.27542969 197.93476563 95.23835938 198.73828125 96.23046875 C240.19100986 148.39347174 257.22723568 215.50443055 250.60107422 281.33666992 C242.72313206 345.30797072 209.9280965 406.04384434 159.375 446.3125 C158.61960937 446.94671875 157.86421875 447.5809375 157.0859375 448.234375 C105.86937689 490.82684121 38.84834222 507.0105362 -26.6171875 501.84375 C-84.23344546 496.04454536 -136.3200682 469.09138752 -177.625 429.3125 C-178.4190625 428.5596875 -179.213125 427.806875 -180.03125 427.03125 C-185.38127051 421.85107141 -189.98124402 416.12335925 -194.625 410.3125 C-195.26050781 409.55582031 -195.89601562 408.79914063 -196.55078125 408.01953125 C-232.70620555 364.52822376 -251.17413973 307.82806232 -250.9375 251.6875 C-250.93534485 250.76396729 -250.9331897 249.84043457 -250.93096924 248.88891602 C-250.87844151 234.83820301 -250.4075825 221.12621168 -247.625 207.3125 C-247.42100586 206.28350586 -247.21701172 205.25451172 -247.00683594 204.19433594 C-236.86183514 154.3553582 -213.62431499 111.02957278 -178.625 74.3125 C-177.86703125 73.51328125 -177.1090625 72.7140625 -176.328125 71.890625 C-171.29884866 66.71867415 -165.95779995 62.0726606 -160.28564453 57.61816406 C-159.10839853 56.69256694 -157.93530101 55.76168238 -156.76513672 54.82714844 C-112.00345448 19.1365514 -57.25914489 -0.2413547 0 0 Z M-160.625 108.3125 C-163.79536985 111.86426773 -166.75954301 115.51138358 -169.625 119.3125 C-170.01993652 119.83634277 -170.41487305 120.36018555 -170.82177734 120.89990234 C-205.16325506 166.80903571 -220.46391869 223.62467838 -213.02294922 280.57470703 C-204.76163232 337.41054 -174.41878073 389.31512433 -128.359375 423.765625 C-82.11175322 457.85905414 -24.56143399 472.58843967 32.375 464.3125 C86.15562537 455.74753922 137.34239086 427.13126723 170.375 383.3125 C170.76993652 382.78865723 171.16487305 382.26481445 171.57177734 381.72509766 C205.86735205 335.87732937 221.20498718 278.93196361 213.77294922 222.05029297 C205.74594617 166.82648184 176.50783844 114.31013631 131.53515625 80.62890625 C129.97087891 79.48228516 129.97087891 79.48228516 128.375 78.3125 C127.52808594 77.68214844 126.68117188 77.05179688 125.80859375 76.40234375 C44.50810864 17.60347561 -67.10258692 25.14809611 -160.625 108.3125 Z " fill="#C7B3EA" transform="translate(255.625,4.6875)"/>
<path d="M0 0 C18.48 0 36.96 0 56 0 C56 69.96 56 139.92 56 212 C37.52 212 19.04 212 0 212 C0 142.04 0 72.08 0 0 Z " fill="#CAB6ED" transform="translate(287,148)"/>
<path d="M0 0 C18.48 0 36.96 0 56 0 C56 69.96 56 139.92 56 212 C37.52 212 19.04 212 0 212 C0 142.04 0 72.08 0 0 Z " fill="#CAB6ED" transform="translate(165,148)"/>
<path d="M0 0 C0.66 0.33 1.32 0.66 2 1 C-8.56 11.56 -19.12 22.12 -30 33 C-30 29.47073554 -29.55717129 29.15977067 -27.21875 26.70703125 C-26.62787598 26.08054687 -26.03700195 25.4540625 -25.42822266 24.80859375 C-24.79190918 24.14988281 -24.1555957 23.49117187 -23.5 22.8125 C-22.85724121 22.13703125 -22.21448242 21.4615625 -21.55224609 20.765625 C-19.70991264 18.83542856 -17.85724214 16.91584187 -16 15 C-15.19820312 14.16855469 -14.39640625 13.33710937 -13.5703125 12.48046875 C-9.24993651 8.08201367 -4.69421852 3.99507959 0 0 Z " fill="#3A3445" transform="translate(94,63)"/>
</svg>
